<svg width="183" height="162" viewBox="0 0 183 162" fill="none" xmlns="http://www.w3.org/2000/svg">
<path d="M84.8501 43.5375C84.8501 43.5375 58.5513 41.443 43.8726 63.3614H33.9648C33.9648 63.3614 37.2064 55.357 52.0681 44.6846L45.3936 21.2451L55.4926 41.4513C55.4926 41.4513 70.9276 35.3503 79.7963 35.7327L81.6081 0L84.8501 35.0677C84.8501 35.0677 101.15 36.78 108.481 42.0248L124.207 25.0603L112.387 44.2108C112.387 44.2108 124.963 52.7886 129.734 61.8403L152.7 54.6921L131.929 65.3645C131.929 65.3645 138.412 77.7492 138.121 90.8071L182.432 93.1926L138.503 95.3869C138.503 95.3869 137.356 112.443 131.829 118.07L148.793 133.414L130.59 122.359C130.59 122.359 110.484 139.515 102.006 136.747C102.006 136.747 130.881 119.5 130.116 95.4866C130.116 95.4866 133.898 59.1804 97.3015 46.2222C97.3015 46.2056 94.0015 44.3022 84.8501 43.5375Z" fill="url(#paint0_linear_603_61)"/>
<path d="M4.18046 65.0234H68.1499C71.3355 65.0234 74.2204 66.8026 75.6448 69.5809L81.8281 86.1851H76.6794L71.4303 72.158C70.8509 70.6093 69.3733 69.5867 67.7183 69.5867H10.3575C8.47783 69.5867 7.17736 71.4665 7.83352 73.2279L37.1936 152.064C38.3108 155.06 41.1718 157.046 44.3755 157.046H108.239C108.593 159.381 106.791 161.604 104.301 161.604H40.1196C36.5907 161.604 33.4343 159.411 32.2047 156.106L0.338293 70.5561C-0.6607 67.8785 1.31955 65.0234 4.18046 65.0234Z" fill="url(#paint1_linear_603_61)"/>
<path d="M6.94023 65.0234H70.9099C74.0955 65.0234 76.9803 66.8026 78.4048 69.5809L84.588 86.1851H79.4394L74.1903 72.158C73.6108 70.6093 72.1333 69.5867 70.4784 69.5867H13.1172C11.2375 69.5867 9.93712 71.4665 10.5933 73.2279L39.9534 152.064C41.0706 155.06 43.9315 157.046 47.1353 157.046H110.998C111.353 159.381 109.55 161.604 107.061 161.604H42.8794C39.3505 161.604 36.1939 159.411 34.9645 156.106L3.09806 70.5561C2.09907 67.8785 4.07932 65.0234 6.94023 65.0234Z" fill="url(#paint2_linear_603_61)"/>
<path d="M67.4531 115.082L81.1375 151.801H107.932C110.202 151.801 111.774 149.531 110.982 147.41L98.9411 115.082H67.4531Z" fill="url(#paint3_linear_603_61)"/>
<path d="M35.2734 115.082L47.3142 147.415C48.3014 150.052 50.8136 151.801 53.6331 151.801H77.3537L63.7292 115.236L63.67 115.082H35.2734Z" fill="url(#paint4_linear_603_61)"/>
<path d="M79.2581 74.8164C82.071 74.8164 84.5897 76.5661 85.577 79.2024L97.6173 111.536H66.1352L52.457 74.8164H79.2581Z" fill="url(#paint5_linear_603_61)"/>
<path d="M24.8388 74.8164H48.6662L62.3444 111.536H33.9478L21.8656 79.096C21.0913 77.0212 22.6222 74.8164 24.8388 74.8164Z" fill="url(#paint6_linear_603_61)"/>
<path style="mix-blend-mode:screen" d="M70.75 115.082L84.4347 151.801H107.93C110.201 151.801 111.773 149.531 110.981 147.41L98.9341 115.082H70.75Z" fill="url(#paint7_linear_603_61)"/>
<path style="mix-blend-mode:screen" d="M38.5703 115.082L50.6111 147.415C51.5982 150.052 54.1104 151.801 56.93 151.801H77.3522L63.6685 115.082H38.5703Z" fill="url(#paint8_linear_603_61)"/>
<path style="mix-blend-mode:screen" d="M79.2566 74.8164C82.0696 74.8164 84.5883 76.5661 85.569 79.2024L97.6159 111.536H69.4318L55.7539 74.8164H79.2566Z" fill="url(#paint9_linear_603_61)"/>
<path style="mix-blend-mode:screen" d="M28.1377 74.8164H48.6668L62.3449 111.536H37.2467L25.1644 79.096C24.3901 77.0212 25.9211 74.8164 28.1377 74.8164Z" fill="url(#paint10_linear_603_61)"/>
<path style="mix-blend-mode:screen" d="M101.902 132.656L85.8301 148.729H103.575C105.667 148.729 107.109 146.636 106.382 144.685L101.902 132.656Z" fill="url(#paint11_linear_603_61)"/>
<path style="mix-blend-mode:screen" d="M87.4202 115.082L75.2793 127.223L80.1321 140.263L98.0541 122.341L95.3531 115.082H87.4202Z" fill="url(#paint12_linear_603_61)"/>
<path style="mix-blend-mode:screen" d="M73.6816 122.943L74.7694 125.875L85.5627 115.082H81.5435L73.6816 122.943Z" fill="url(#paint13_linear_603_61)"/>
<path style="mix-blend-mode:screen" d="M70.75 115.082L72.275 119.178L76.3718 115.082H70.75Z" fill="url(#paint14_linear_603_61)"/>
<path style="mix-blend-mode:screen" d="M70.1186 132.383L55.1758 147.326C56.2575 148.213 57.6348 148.728 59.1007 148.728H71.6673L74.9779 145.417L70.1186 132.383Z" fill="url(#paint15_linear_603_61)"/>
<path style="mix-blend-mode:screen" d="M52.9238 143.694L53.2903 144.687C53.5267 145.314 53.8518 145.888 54.2538 146.391L69.6169 131.027L68.5226 128.102L52.9238 143.694Z" fill="url(#paint16_linear_603_61)"/>
<path style="mix-blend-mode:screen" d="M49.2578 133.873L51.5158 139.938L67.1151 124.338L64.8571 118.273L49.2578 133.873Z" fill="url(#paint17_linear_603_61)"/>
<path style="mix-blend-mode:screen" d="M44.1855 120.26L45.415 123.552L53.8855 115.082H49.3636L44.1855 120.26Z" fill="url(#paint18_linear_603_61)"/>
<path style="mix-blend-mode:screen" d="M42.2598 115.082L43.2529 117.754L45.9247 115.082H42.2598Z" fill="url(#paint19_linear_603_61)"/>
<path style="mix-blend-mode:screen" d="M93.2011 109.301L90.9668 111.535H94.0347L93.2011 109.301Z" fill="url(#paint20_linear_603_61)"/>
<path style="mix-blend-mode:screen" d="M85.0898 111.536H89.1098L92.6975 107.948L91.6041 105.016L85.0898 111.536Z" fill="url(#paint21_linear_603_61)"/>
<path style="mix-blend-mode:screen" d="M71.5957 111.537H79.9185L90.2034 101.252L87.9454 95.1875L71.5957 111.537Z" fill="url(#paint22_linear_603_61)"/>
<path style="mix-blend-mode:screen" d="M64.9453 99.5026L66.1748 102.794L84.0968 84.8724L83.0034 81.9287C82.9625 81.8102 82.9151 81.6982 82.862 81.5859L64.9453 99.5026Z" fill="url(#paint23_linear_603_61)"/>
<path style="mix-blend-mode:screen" d="M56.9004 77.8906L64.0114 96.9952L81.4311 79.5753C80.3082 78.5172 78.8012 77.8906 77.1928 77.8906H56.9004Z" fill="url(#paint24_linear_603_61)"/>
<path style="mix-blend-mode:screen" d="M59.7866 104.66L52.9121 111.535H57.4341L61.0102 107.959L59.7866 104.66Z" fill="url(#paint25_linear_603_61)"/>
<path style="mix-blend-mode:screen" d="M29.8762 81.833L40.9357 111.536H49.4713L58.8521 102.155L49.8141 77.8906H32.607C30.5677 77.8906 29.1609 79.924 29.8762 81.833Z" fill="url(#paint26_linear_603_61)"/>
<defs>
<linearGradient id="paint0_linear_603_61" x1="182.434" y1="68.5176" x2="33.964" y2="68.5176" gradientUnits="userSpaceOnUse">
<stop stop-color="#F19039"/>
<stop offset="1" stop-color="#F1AA32"/>
</linearGradient>
<linearGradient id="paint1_linear_603_61" x1="54.182" y1="169.247" x2="54.182" y2="44.6835" gradientUnits="userSpaceOnUse">
<stop stop-color="#001040"/>
<stop offset="1" stop-color="#2E3DFF"/>
</linearGradient>
<linearGradient id="paint2_linear_603_61" x1="56.9358" y1="169.247" x2="56.9358" y2="44.6835" gradientUnits="userSpaceOnUse">
<stop stop-color="#4AFFC7"/>
<stop offset="0.54" stop-color="#D8BFF7"/>
<stop offset="1" stop-color="#2E3DFF"/>
</linearGradient>
<linearGradient id="paint3_linear_603_61" x1="68.9901" y1="170.941" x2="113.405" y2="86.3479" gradientUnits="userSpaceOnUse">
<stop stop-color="#4AFFC7"/>
<stop offset="0.45" stop-color="#D8BFF7"/>
<stop offset="1" stop-color="#2E3DFF"/>
</linearGradient>
<linearGradient id="paint4_linear_603_61" x1="42.9164" y1="158.96" x2="89.2413" y2="70.7371" gradientUnits="userSpaceOnUse">
<stop stop-color="#4AFFC7"/>
<stop offset="0.45" stop-color="#D8BFF7"/>
<stop offset="1" stop-color="#2E3DFF"/>
</linearGradient>
<linearGradient id="paint5_linear_603_61" x1="42.0063" y1="156.088" x2="86.3926" y2="71.5595" gradientUnits="userSpaceOnUse">
<stop stop-color="#4AFFC7"/>
<stop offset="0.45" stop-color="#D8BFF7"/>
<stop offset="1" stop-color="#2E3DFF"/>
</linearGradient>
<linearGradient id="paint6_linear_603_61" x1="15.3517" y1="145.134" x2="61.641" y2="56.9829" gradientUnits="userSpaceOnUse">
<stop stop-color="#4AFFC7"/>
<stop offset="0.45" stop-color="#D8BFF7"/>
<stop offset="1" stop-color="#2E3DFF"/>
</linearGradient>
<linearGradient id="paint7_linear_603_61" x1="112.866" y1="84.5982" x2="74.77" y2="167.371" gradientUnits="userSpaceOnUse">
<stop stop-color="#4AFFC7"/>
<stop offset="0.45" stop-color="#D8BFF7"/>
<stop offset="1" stop-color="#2E3DFF"/>
</linearGradient>
<linearGradient id="paint8_linear_603_61" x1="85.7698" y1="73.0365" x2="47.6142" y2="155.933" gradientUnits="userSpaceOnUse">
<stop stop-color="#4AFFC7"/>
<stop offset="0.45" stop-color="#D8BFF7"/>
<stop offset="1" stop-color="#2E3DFF"/>
</linearGradient>
<linearGradient id="paint9_linear_603_61" x1="86.4916" y1="71.8727" x2="48.4184" y2="154.598" gradientUnits="userSpaceOnUse">
<stop stop-color="#4AFFC7"/>
<stop offset="0.45" stop-color="#D8BFF7"/>
<stop offset="1" stop-color="#2E3DFF"/>
</linearGradient>
<linearGradient id="paint10_linear_603_61" x1="59.3599" y1="60.3049" x2="21.1804" y2="143.249" gradientUnits="userSpaceOnUse">
<stop stop-color="#4AFFC7"/>
<stop offset="0.45" stop-color="#D8BFF7"/>
<stop offset="1" stop-color="#2E3DFF"/>
</linearGradient>
<linearGradient id="paint11_linear_603_61" x1="96.2033" y1="78.3635" x2="96.2033" y2="147.641" gradientUnits="userSpaceOnUse">
<stop stop-color="#4AFFC7"/>
<stop offset="0.45" stop-color="#D8BFF7"/>
<stop offset="1" stop-color="#2E3DFF" stop-opacity="0"/>
</linearGradient>
<linearGradient id="paint12_linear_603_61" x1="86.67" y1="78.3623" x2="86.67" y2="147.64" gradientUnits="userSpaceOnUse">
<stop stop-color="#4AFFC7"/>
<stop offset="0.45" stop-color="#D8BFF7"/>
<stop offset="1" stop-color="#2E3DFF" stop-opacity="0"/>
</linearGradient>
<linearGradient id="paint13_linear_603_61" x1="79.6222" y1="78.3624" x2="79.6222" y2="147.64" gradientUnits="userSpaceOnUse">
<stop stop-color="#4AFFC7"/>
<stop offset="0.45" stop-color="#D8BFF7"/>
<stop offset="1" stop-color="#2E3DFF" stop-opacity="0"/>
</linearGradient>
<linearGradient id="paint14_linear_603_61" x1="73.5638" y1="78.3623" x2="73.5638" y2="147.64" gradientUnits="userSpaceOnUse">
<stop stop-color="#4AFFC7"/>
<stop offset="0.45" stop-color="#D8BFF7"/>
<stop offset="1" stop-color="#2E3DFF" stop-opacity="0"/>
</linearGradient>
<linearGradient id="paint15_linear_603_61" x1="65.0768" y1="78.3622" x2="65.0768" y2="147.64" gradientUnits="userSpaceOnUse">
<stop stop-color="#4AFFC7"/>
<stop offset="0.45" stop-color="#D8BFF7"/>
<stop offset="1" stop-color="#2E3DFF" stop-opacity="0"/>
</linearGradient>
<linearGradient id="paint16_linear_603_61" x1="61.2702" y1="78.36" x2="61.2702" y2="147.638" gradientUnits="userSpaceOnUse">
<stop stop-color="#4AFFC7"/>
<stop offset="0.45" stop-color="#D8BFF7"/>
<stop offset="1" stop-color="#2E3DFF" stop-opacity="0"/>
</linearGradient>
<linearGradient id="paint17_linear_603_61" x1="58.1894" y1="78.3624" x2="58.1894" y2="147.64" gradientUnits="userSpaceOnUse">
<stop stop-color="#4AFFC7"/>
<stop offset="0.45" stop-color="#D8BFF7"/>
<stop offset="1" stop-color="#2E3DFF" stop-opacity="0"/>
</linearGradient>
<linearGradient id="paint18_linear_603_61" x1="49.0385" y1="78.3624" x2="49.0385" y2="147.64" gradientUnits="userSpaceOnUse">
<stop stop-color="#4AFFC7"/>
<stop offset="0.45" stop-color="#D8BFF7"/>
<stop offset="1" stop-color="#2E3DFF" stop-opacity="0"/>
</linearGradient>
<linearGradient id="paint19_linear_603_61" x1="44.0923" y1="78.3625" x2="44.0923" y2="147.64" gradientUnits="userSpaceOnUse">
<stop stop-color="#4AFFC7"/>
<stop offset="0.45" stop-color="#D8BFF7"/>
<stop offset="1" stop-color="#2E3DFF" stop-opacity="0"/>
</linearGradient>
<linearGradient id="paint20_linear_603_61" x1="92.504" y1="78.3623" x2="92.504" y2="147.64" gradientUnits="userSpaceOnUse">
<stop stop-color="#4AFFC7"/>
<stop offset="0.45" stop-color="#D8BFF7"/>
<stop offset="1" stop-color="#2E3DFF" stop-opacity="0"/>
</linearGradient>
<linearGradient id="paint21_linear_603_61" x1="88.8965" y1="78.3627" x2="88.8965" y2="147.64" gradientUnits="userSpaceOnUse">
<stop stop-color="#4AFFC7"/>
<stop offset="0.45" stop-color="#D8BFF7"/>
<stop offset="1" stop-color="#2E3DFF" stop-opacity="0"/>
</linearGradient>
<linearGradient id="paint22_linear_603_61" x1="80.8992" y1="78.3643" x2="80.8992" y2="147.642" gradientUnits="userSpaceOnUse">
<stop stop-color="#4AFFC7"/>
<stop offset="0.45" stop-color="#D8BFF7"/>
<stop offset="1" stop-color="#2E3DFF" stop-opacity="0"/>
</linearGradient>
<linearGradient id="paint23_linear_603_61" x1="74.5212" y1="78.3645" x2="74.5212" y2="147.642" gradientUnits="userSpaceOnUse">
<stop stop-color="#4AFFC7"/>
<stop offset="0.45" stop-color="#D8BFF7"/>
<stop offset="1" stop-color="#2E3DFF" stop-opacity="0"/>
</linearGradient>
<linearGradient id="paint24_linear_603_61" x1="69.1659" y1="78.3635" x2="69.1659" y2="147.641" gradientUnits="userSpaceOnUse">
<stop stop-color="#4AFFC7"/>
<stop offset="0.45" stop-color="#D8BFF7"/>
<stop offset="1" stop-color="#2E3DFF" stop-opacity="0"/>
</linearGradient>
<linearGradient id="paint25_linear_603_61" x1="56.9612" y1="78.3619" x2="56.9612" y2="147.64" gradientUnits="userSpaceOnUse">
<stop stop-color="#4AFFC7"/>
<stop offset="0.45" stop-color="#D8BFF7"/>
<stop offset="1" stop-color="#2E3DFF" stop-opacity="0"/>
</linearGradient>
<linearGradient id="paint26_linear_603_61" x1="44.2754" y1="78.3635" x2="44.2754" y2="147.641" gradientUnits="userSpaceOnUse">
<stop stop-color="#4AFFC7"/>
<stop offset="0.45" stop-color="#D8BFF7"/>
<stop offset="1" stop-color="#2E3DFF" stop-opacity="0"/>
</linearGradient>
</defs>
</svg>
